<svg height="512pt" viewBox="-42 0 512 512" width="512pt" xmlns="http://www.w3.org/2000/svg"><path d="m0 29.890625v389.714844l89.15625 92.394531h338.875v-482.109375zm0 0" fill="#e5f3fb"/><path d="m213.726562 29.890625h214.304688v482.109375h-214.304688zm0 0" fill="#cbe8f8"/><path d="m0 419.605469h88.726562l.429688 92.394531zm0 0" fill="#cbe8f8"/><path d="m190.316406 116.96875v29.96875h20.976563l-39.640625 39.640625-54.554688-54.554687-64.101562 64.101562 21.191406 21.191406 42.910156-42.910156 54.554688 54.554688 60.832031-60.832032v21.3125h29.96875v-72.472656zm0 0" fill="#fa235e"/><path d="m213.726562 116.96875v69.914062l18.757813-18.753906v21.3125h29.96875v-72.472656zm0 0" fill="#c91341"/><path d="m293.644531 70.945312h-159.832031v-70.945312h159.832031zm0 0" fill="#00607f"/><path d="m293.644531 70.945312h-79.917969v-70.945312h79.917969zm0 0" fill="#00465f"/><g fill="#00aadf"><path d="m294.585938 116.96875h73.976562v29.96875h-73.976562zm0 0"/><path d="m294.585938 176.910156h73.976562v29.96875h-73.976562zm0 0"/><path d="m294.585938 236.851562h73.976562v29.964844h-73.976562zm0 0"/></g><path d="m247.867188 443.457031c-11.167969 0-22.328126-4.847656-30.03125-14.539062-4.675782-5.886719-7.5-13.089844-8.085938-20.582031-.886719-11.359376 3.132812-22.1875 11.078125-30.136719 11.195313-11.195313 47.226563-20.628907 62.195313-24.164063l21.003906-4.960937-4.960938 21.003906c-3.535156 14.972656-12.964844 51.003906-24.160156 62.195313-7.453125 7.453124-17.25 11.179687-27.039062 11.183593zm0 0" fill="#59c36a"/><path d="m180.28125 443.457031c-9.792969 0-19.582031-3.726562-27.039062-11.183593-11.191407-11.195313-20.625-47.222657-24.160157-62.195313l-4.960937-21.003906 21.003906 4.960937c14.972656 3.535156 51 12.96875 62.195312 24.164063 8.3125 8.3125 12.324219 19.777343 10.925782 31.699219-.753906 6.417968-3.171875 12.574218-6.992188 17.789062-7.710937 10.511719-19.34375 15.765625-30.972656 15.769531zm0 0" fill="#97de3d"/><path d="m200.738281 345.214844h26.671875v166.785156h-26.671875zm0 0" fill="#fdbf00"/><path d="m213.765625 345.214844h13.644531v166.785156h-13.644531zm0 0" fill="#f6a313"/><path d="m214.074219 358.550781c-21.082031 0-38.234375-17.152343-38.234375-38.238281 0-15.828125 18.804687-47.976562 26.890625-61.0625l11.035156-18.359375 11.65625 18.359375c8.085937 13.085938 26.890625 45.234375 26.890625 61.0625 0 21.085938-17.152344 38.238281-38.238281 38.238281zm0 0" fill="#97de3d"/><path d="m214.074219 358.550781c21.085937 0 38.238281-17.152343 38.238281-38.238281 0-15.828125-18.808594-47.976562-26.894531-61.0625l-11.652344-18.359375v117.652344c.105469 0 .207031.007812.308594.007812zm0 0" fill="#59c36a"/></svg>